<mxfile host="Electron" modified="2023-06-05T14:13:50.014Z" agent="Mozilla/5.0 (Macintosh; Intel Mac OS X 10_15_7) AppleWebKit/537.36 (KHTML, like Gecko) draw.io/21.2.8 Chrome/112.0.5615.165 Electron/24.2.0 Safari/537.36" etag="58wFRCxilRfLTcEVLBrd" version="21.2.8" type="device">
  <diagram name="Страница 1" id="CTob03YvOZShCHo467r1">
    <mxGraphModel dx="2190" dy="877" grid="1" gridSize="10" guides="1" tooltips="1" connect="1" arrows="1" fold="1" page="1" pageScale="1" pageWidth="827" pageHeight="1169" math="0" shadow="0">
      <root>
        <mxCell id="0" />
        <mxCell id="1" parent="0" />
        <mxCell id="HX4FQDaYf_B5SBjf3QtH-2" value="" style="endArrow=none;html=1;rounded=0;" parent="1" edge="1">
          <mxGeometry width="50" height="50" relative="1" as="geometry">
            <mxPoint x="440" y="180" as="sourcePoint" />
            <mxPoint x="480" y="140" as="targetPoint" />
          </mxGeometry>
        </mxCell>
        <mxCell id="HX4FQDaYf_B5SBjf3QtH-4" value="контакты&lt;br&gt;отдела" style="ellipse;whiteSpace=wrap;html=1;" parent="1" vertex="1">
          <mxGeometry x="460" y="110" width="70" height="40" as="geometry" />
        </mxCell>
        <mxCell id="HX4FQDaYf_B5SBjf3QtH-5" value="название отдела" style="ellipse;whiteSpace=wrap;html=1;" parent="1" vertex="1">
          <mxGeometry x="390" y="100" width="70" height="40" as="geometry" />
        </mxCell>
        <mxCell id="HX4FQDaYf_B5SBjf3QtH-6" value="" style="endArrow=none;html=1;rounded=0;exitX=0.5;exitY=0;exitDx=0;exitDy=0;" parent="1" edge="1">
          <mxGeometry width="50" height="50" relative="1" as="geometry">
            <mxPoint x="395" y="180" as="sourcePoint" />
            <mxPoint x="429" y="140" as="targetPoint" />
            <Array as="points">
              <mxPoint x="420" y="150" />
            </Array>
          </mxGeometry>
        </mxCell>
        <mxCell id="HX4FQDaYf_B5SBjf3QtH-8" value="&lt;u&gt;ID отдела&lt;/u&gt;" style="ellipse;whiteSpace=wrap;html=1;" parent="1" vertex="1">
          <mxGeometry x="310" y="110" width="70" height="40" as="geometry" />
        </mxCell>
        <mxCell id="HX4FQDaYf_B5SBjf3QtH-10" value="" style="endArrow=none;html=1;rounded=0;" parent="1" edge="1">
          <mxGeometry width="50" height="50" relative="1" as="geometry">
            <mxPoint x="360" y="180" as="sourcePoint" />
            <mxPoint x="350" y="150" as="targetPoint" />
            <Array as="points">
              <mxPoint x="360" y="180" />
            </Array>
          </mxGeometry>
        </mxCell>
        <mxCell id="HX4FQDaYf_B5SBjf3QtH-15" value="&lt;u&gt;&lt;font style=&quot;font-size: 9px;&quot;&gt;ID Сотрудника&lt;/font&gt;&lt;/u&gt;" style="ellipse;whiteSpace=wrap;html=1;" parent="1" vertex="1">
          <mxGeometry x="470" y="300" width="70" height="40" as="geometry" />
        </mxCell>
        <mxCell id="HX4FQDaYf_B5SBjf3QtH-17" value="&lt;u&gt;ID Отдел&lt;/u&gt;" style="ellipse;whiteSpace=wrap;html=1;" parent="1" vertex="1">
          <mxGeometry x="473" y="360" width="70" height="40" as="geometry" />
        </mxCell>
        <mxCell id="HX4FQDaYf_B5SBjf3QtH-18" value="Часы работы" style="ellipse;whiteSpace=wrap;html=1;" parent="1" vertex="1">
          <mxGeometry x="230" y="330" width="70" height="40" as="geometry" />
        </mxCell>
        <mxCell id="HX4FQDaYf_B5SBjf3QtH-19" value="Доля ставки" style="ellipse;whiteSpace=wrap;html=1;" parent="1" vertex="1">
          <mxGeometry x="200" y="290" width="65" height="40" as="geometry" />
        </mxCell>
        <mxCell id="HX4FQDaYf_B5SBjf3QtH-20" value="&lt;u&gt;ID&lt;/u&gt;" style="ellipse;whiteSpace=wrap;html=1;" parent="1" vertex="1">
          <mxGeometry x="230" y="250" width="70" height="40" as="geometry" />
        </mxCell>
        <mxCell id="HX4FQDaYf_B5SBjf3QtH-27" value="" style="endArrow=none;html=1;rounded=0;entryX=0;entryY=0.25;entryDx=0;entryDy=0;" parent="1" source="HX4FQDaYf_B5SBjf3QtH-20" edge="1">
          <mxGeometry width="50" height="50" relative="1" as="geometry">
            <mxPoint x="300" y="330" as="sourcePoint" />
            <mxPoint x="335" y="295" as="targetPoint" />
          </mxGeometry>
        </mxCell>
        <mxCell id="HX4FQDaYf_B5SBjf3QtH-28" value="" style="endArrow=none;html=1;rounded=0;entryX=0.1;entryY=1;entryDx=0;entryDy=0;entryPerimeter=0;exitX=1;exitY=0;exitDx=0;exitDy=0;" parent="1" source="HX4FQDaYf_B5SBjf3QtH-18" edge="1">
          <mxGeometry width="50" height="50" relative="1" as="geometry">
            <mxPoint x="330" y="350" as="sourcePoint" />
            <mxPoint x="347" y="340" as="targetPoint" />
          </mxGeometry>
        </mxCell>
        <mxCell id="HX4FQDaYf_B5SBjf3QtH-31" value="" style="endArrow=none;html=1;rounded=0;exitX=1;exitY=0.5;exitDx=0;exitDy=0;entryX=0.002;entryY=0.606;entryDx=0;entryDy=0;entryPerimeter=0;" parent="1" source="HX4FQDaYf_B5SBjf3QtH-19" edge="1">
          <mxGeometry width="50" height="50" relative="1" as="geometry">
            <mxPoint x="310" y="360" as="sourcePoint" />
            <mxPoint x="335.24" y="316.36" as="targetPoint" />
          </mxGeometry>
        </mxCell>
        <mxCell id="HX4FQDaYf_B5SBjf3QtH-33" value="" style="endArrow=none;html=1;rounded=0;entryX=0;entryY=0.5;entryDx=0;entryDy=0;exitX=1;exitY=0.5;exitDx=0;exitDy=0;" parent="1" target="HX4FQDaYf_B5SBjf3QtH-15" edge="1">
          <mxGeometry width="50" height="50" relative="1" as="geometry">
            <mxPoint x="455" y="310" as="sourcePoint" />
            <mxPoint x="440" y="260" as="targetPoint" />
          </mxGeometry>
        </mxCell>
        <mxCell id="HX4FQDaYf_B5SBjf3QtH-58" value="" style="endArrow=none;html=1;rounded=0;entryX=0.5;entryY=1;entryDx=0;entryDy=0;exitX=0.5;exitY=0;exitDx=0;exitDy=0;" parent="1" edge="1">
          <mxGeometry relative="1" as="geometry">
            <mxPoint x="395" y="280" as="sourcePoint" />
            <mxPoint x="395" y="230" as="targetPoint" />
          </mxGeometry>
        </mxCell>
        <mxCell id="HX4FQDaYf_B5SBjf3QtH-59" value="1" style="resizable=0;html=1;whiteSpace=wrap;align=right;verticalAlign=bottom;" parent="HX4FQDaYf_B5SBjf3QtH-58" connectable="0" vertex="1">
          <mxGeometry x="1" relative="1" as="geometry">
            <mxPoint x="-5" y="20" as="offset" />
          </mxGeometry>
        </mxCell>
        <mxCell id="HX4FQDaYf_B5SBjf3QtH-60" value="" style="endArrow=none;html=1;rounded=0;exitX=0.5;exitY=0;exitDx=0;exitDy=0;entryX=0.5;entryY=1;entryDx=0;entryDy=0;" parent="1" source="HX4FQDaYf_B5SBjf3QtH-64" edge="1">
          <mxGeometry relative="1" as="geometry">
            <mxPoint x="320" y="230" as="sourcePoint" />
            <mxPoint x="395" y="230" as="targetPoint" />
          </mxGeometry>
        </mxCell>
        <mxCell id="HX4FQDaYf_B5SBjf3QtH-62" value="" style="resizable=0;html=1;whiteSpace=wrap;align=right;verticalAlign=bottom;" parent="HX4FQDaYf_B5SBjf3QtH-60" connectable="0" vertex="1">
          <mxGeometry x="1" relative="1" as="geometry" />
        </mxCell>
        <mxCell id="HX4FQDaYf_B5SBjf3QtH-63" value="" style="line;strokeWidth=1;rotatable=0;dashed=0;labelPosition=right;align=left;verticalAlign=middle;spacingTop=0;spacingLeft=6;points=[];portConstraint=eastwest;" parent="1" vertex="1">
          <mxGeometry x="390" y="240" width="10" height="10" as="geometry" />
        </mxCell>
        <mxCell id="HX4FQDaYf_B5SBjf3QtH-65" value="" style="endArrow=none;html=1;rounded=0;exitX=0.5;exitY=0;exitDx=0;exitDy=0;entryX=0.5;entryY=1;entryDx=0;entryDy=0;" parent="1" target="HX4FQDaYf_B5SBjf3QtH-64" edge="1">
          <mxGeometry relative="1" as="geometry">
            <mxPoint x="395" y="280" as="sourcePoint" />
            <mxPoint x="395" y="230" as="targetPoint" />
          </mxGeometry>
        </mxCell>
        <mxCell id="HX4FQDaYf_B5SBjf3QtH-66" value="M" style="resizable=0;html=1;whiteSpace=wrap;align=left;verticalAlign=bottom;" parent="HX4FQDaYf_B5SBjf3QtH-65" connectable="0" vertex="1">
          <mxGeometry x="-1" relative="1" as="geometry">
            <mxPoint x="-15" as="offset" />
          </mxGeometry>
        </mxCell>
        <mxCell id="HX4FQDaYf_B5SBjf3QtH-64" value="" style="line;strokeWidth=1;rotatable=0;dashed=0;labelPosition=right;align=left;verticalAlign=middle;spacingTop=0;spacingLeft=6;points=[];portConstraint=eastwest;" parent="1" vertex="1">
          <mxGeometry x="390" y="270" width="10" height="10" as="geometry" />
        </mxCell>
        <mxCell id="HX4FQDaYf_B5SBjf3QtH-69" value="" style="endArrow=none;html=1;rounded=0;exitX=0.975;exitY=0.024;exitDx=0;exitDy=0;entryX=-0.001;entryY=0.837;entryDx=0;entryDy=0;entryPerimeter=0;exitPerimeter=0;" parent="1" edge="1">
          <mxGeometry relative="1" as="geometry">
            <mxPoint x="452" y="281.43999999999994" as="sourcePoint" />
            <mxPoint x="489.9100000000001" y="216.79500000000007" as="targetPoint" />
          </mxGeometry>
        </mxCell>
        <mxCell id="HX4FQDaYf_B5SBjf3QtH-70" value="1" style="resizable=0;html=1;whiteSpace=wrap;align=right;verticalAlign=bottom;" parent="HX4FQDaYf_B5SBjf3QtH-69" connectable="0" vertex="1">
          <mxGeometry x="1" relative="1" as="geometry">
            <mxPoint x="-12" y="11" as="offset" />
          </mxGeometry>
        </mxCell>
        <mxCell id="HX4FQDaYf_B5SBjf3QtH-72" value="" style="endArrow=none;html=1;rounded=0;" parent="1" edge="1">
          <mxGeometry width="50" height="50" relative="1" as="geometry">
            <mxPoint x="480" y="220" as="sourcePoint" />
            <mxPoint x="490" y="230" as="targetPoint" />
          </mxGeometry>
        </mxCell>
        <mxCell id="HX4FQDaYf_B5SBjf3QtH-73" value="" style="endArrow=none;html=1;rounded=0;" parent="1" edge="1">
          <mxGeometry width="50" height="50" relative="1" as="geometry">
            <mxPoint x="450" y="270" as="sourcePoint" />
            <mxPoint x="460" y="280" as="targetPoint" />
          </mxGeometry>
        </mxCell>
        <mxCell id="HX4FQDaYf_B5SBjf3QtH-77" value="M" style="resizable=0;html=1;whiteSpace=wrap;align=right;verticalAlign=bottom;" parent="1" connectable="0" vertex="1">
          <mxGeometry x="489.99987761439917" y="240.00405200783882" as="geometry">
            <mxPoint x="-37" y="34" as="offset" />
          </mxGeometry>
        </mxCell>
        <mxCell id="HX4FQDaYf_B5SBjf3QtH-78" value="&lt;font style=&quot;font-size: 9px;&quot;&gt;&lt;u&gt;ID Должности&lt;/u&gt;&lt;/font&gt;" style="ellipse;whiteSpace=wrap;html=1;" parent="1" vertex="1">
          <mxGeometry x="560" y="130" width="70" height="40" as="geometry" />
        </mxCell>
        <mxCell id="HX4FQDaYf_B5SBjf3QtH-79" value="&lt;font style=&quot;font-size: 8px;&quot;&gt;Название должности&lt;/font&gt;" style="ellipse;whiteSpace=wrap;html=1;" parent="1" vertex="1">
          <mxGeometry x="600" y="180" width="70" height="40" as="geometry" />
        </mxCell>
        <mxCell id="HX4FQDaYf_B5SBjf3QtH-80" value="&lt;font style=&quot;font-size: 6px;&quot;&gt;Стандартный оклад должности&lt;/font&gt;" style="ellipse;whiteSpace=wrap;html=1;" parent="1" vertex="1">
          <mxGeometry x="570" y="240" width="70" height="40" as="geometry" />
        </mxCell>
        <mxCell id="HX4FQDaYf_B5SBjf3QtH-81" value="" style="endArrow=none;html=1;rounded=0;entryX=0.098;entryY=0.778;entryDx=0;entryDy=0;entryPerimeter=0;exitX=0.75;exitY=0;exitDx=0;exitDy=0;" parent="1" target="HX4FQDaYf_B5SBjf3QtH-78" edge="1">
          <mxGeometry width="50" height="50" relative="1" as="geometry">
            <mxPoint x="557.5" y="187.5" as="sourcePoint" />
            <mxPoint x="570" y="160" as="targetPoint" />
          </mxGeometry>
        </mxCell>
        <mxCell id="HX4FQDaYf_B5SBjf3QtH-82" value="" style="endArrow=none;html=1;rounded=0;entryX=0;entryY=0.5;entryDx=0;entryDy=0;exitX=1;exitY=0.5;exitDx=0;exitDy=0;" parent="1" target="HX4FQDaYf_B5SBjf3QtH-79" edge="1">
          <mxGeometry width="50" height="50" relative="1" as="geometry">
            <mxPoint x="580" y="205" as="sourcePoint" />
            <mxPoint x="530" y="200" as="targetPoint" />
          </mxGeometry>
        </mxCell>
        <mxCell id="HX4FQDaYf_B5SBjf3QtH-83" value="" style="endArrow=none;html=1;rounded=0;entryX=0;entryY=0;entryDx=0;entryDy=0;exitX=0.5;exitY=1;exitDx=0;exitDy=0;" parent="1" source="tO4NBVC32cCDoz9cuNgk-4" target="HX4FQDaYf_B5SBjf3QtH-80" edge="1">
          <mxGeometry width="50" height="50" relative="1" as="geometry">
            <mxPoint x="544.5400000000002" y="223.02499999999998" as="sourcePoint" />
            <mxPoint x="530" y="200" as="targetPoint" />
          </mxGeometry>
        </mxCell>
        <mxCell id="HX4FQDaYf_B5SBjf3QtH-86" value="" style="endArrow=none;html=1;rounded=0;entryX=0.053;entryY=0.018;entryDx=0;entryDy=0;entryPerimeter=0;" parent="1" edge="1">
          <mxGeometry width="50" height="50" relative="1" as="geometry">
            <mxPoint x="250" y="220" as="sourcePoint" />
            <mxPoint x="341.3600000000001" y="281.08000000000004" as="targetPoint" />
          </mxGeometry>
        </mxCell>
        <mxCell id="HX4FQDaYf_B5SBjf3QtH-88" value="" style="endArrow=none;html=1;rounded=0;" parent="1" edge="1">
          <mxGeometry width="50" height="50" relative="1" as="geometry">
            <mxPoint x="335" y="270" as="sourcePoint" />
            <mxPoint x="325" y="280" as="targetPoint" />
            <Array as="points">
              <mxPoint x="325" y="280" />
            </Array>
          </mxGeometry>
        </mxCell>
        <mxCell id="HX4FQDaYf_B5SBjf3QtH-89" value="M" style="resizable=0;html=1;whiteSpace=wrap;align=left;verticalAlign=bottom;" parent="1" connectable="0" vertex="1">
          <mxGeometry x="335.0000000000001" y="274.99999999999994" as="geometry" />
        </mxCell>
        <mxCell id="HX4FQDaYf_B5SBjf3QtH-90" value="" style="endArrow=none;html=1;rounded=0;" parent="1" edge="1">
          <mxGeometry width="50" height="50" relative="1" as="geometry">
            <mxPoint x="275" y="230" as="sourcePoint" />
            <mxPoint x="265" y="240" as="targetPoint" />
            <Array as="points">
              <mxPoint x="265" y="240" />
            </Array>
          </mxGeometry>
        </mxCell>
        <mxCell id="HX4FQDaYf_B5SBjf3QtH-91" value="1" style="resizable=0;html=1;whiteSpace=wrap;align=right;verticalAlign=bottom;" parent="1" connectable="0" vertex="1">
          <mxGeometry x="285" y="240" as="geometry" />
        </mxCell>
        <mxCell id="HX4FQDaYf_B5SBjf3QtH-92" value="ФИО" style="ellipse;whiteSpace=wrap;html=1;" parent="1" vertex="1">
          <mxGeometry x="120" y="157.5" width="60" height="30" as="geometry" />
        </mxCell>
        <mxCell id="HX4FQDaYf_B5SBjf3QtH-93" value="&lt;font style=&quot;font-size: 7px;&quot;&gt;&lt;u&gt;ID Сотрудника&lt;/u&gt;&lt;/font&gt;" style="ellipse;whiteSpace=wrap;html=1;" parent="1" vertex="1">
          <mxGeometry x="90" y="190" width="60" height="30" as="geometry" />
        </mxCell>
        <mxCell id="HX4FQDaYf_B5SBjf3QtH-94" value="&lt;p style=&quot;line-height: 110%;&quot;&gt;&lt;font style=&quot;font-size: 7px;&quot;&gt;Контакты сотрудника&lt;/font&gt;&lt;/p&gt;" style="ellipse;whiteSpace=wrap;html=1;" parent="1" vertex="1">
          <mxGeometry x="100" y="230" width="60" height="30" as="geometry" />
        </mxCell>
        <mxCell id="HX4FQDaYf_B5SBjf3QtH-95" value="" style="endArrow=none;html=1;rounded=0;entryX=1;entryY=1;entryDx=0;entryDy=0;exitX=0.5;exitY=0;exitDx=0;exitDy=0;" parent="1" target="HX4FQDaYf_B5SBjf3QtH-92" edge="1">
          <mxGeometry width="50" height="50" relative="1" as="geometry">
            <mxPoint x="210" y="200" as="sourcePoint" />
            <mxPoint x="340" y="190" as="targetPoint" />
          </mxGeometry>
        </mxCell>
        <mxCell id="HX4FQDaYf_B5SBjf3QtH-96" value="" style="endArrow=none;html=1;rounded=0;entryX=1;entryY=0.5;entryDx=0;entryDy=0;exitX=0;exitY=0.25;exitDx=0;exitDy=0;" parent="1" target="HX4FQDaYf_B5SBjf3QtH-93" edge="1">
          <mxGeometry width="50" height="50" relative="1" as="geometry">
            <mxPoint x="170" y="210" as="sourcePoint" />
            <mxPoint x="181" y="193" as="targetPoint" />
          </mxGeometry>
        </mxCell>
        <mxCell id="HX4FQDaYf_B5SBjf3QtH-97" value="" style="endArrow=none;html=1;rounded=0;entryX=1;entryY=0.5;entryDx=0;entryDy=0;exitX=0.007;exitY=0.857;exitDx=0;exitDy=0;exitPerimeter=0;" parent="1" target="HX4FQDaYf_B5SBjf3QtH-94" edge="1">
          <mxGeometry width="50" height="50" relative="1" as="geometry">
            <mxPoint x="170.55999999999995" y="234.27999999999997" as="sourcePoint" />
            <mxPoint x="160" y="215" as="targetPoint" />
          </mxGeometry>
        </mxCell>
        <mxCell id="HX4FQDaYf_B5SBjf3QtH-98" value="" style="endArrow=none;html=1;rounded=0;entryX=0.5;entryY=1;entryDx=0;entryDy=0;" parent="1" edge="1">
          <mxGeometry width="50" height="50" relative="1" as="geometry">
            <mxPoint x="395" y="460" as="sourcePoint" />
            <mxPoint x="395" y="340" as="targetPoint" />
          </mxGeometry>
        </mxCell>
        <mxCell id="HX4FQDaYf_B5SBjf3QtH-100" value="" style="endArrow=none;html=1;rounded=0;entryX=0.25;entryY=1;entryDx=0;entryDy=0;exitX=1.006;exitY=0.402;exitDx=0;exitDy=0;exitPerimeter=0;" parent="1" edge="1">
          <mxGeometry width="50" height="50" relative="1" as="geometry">
            <mxPoint x="220.53999999999996" y="456.08000000000004" as="sourcePoint" />
            <mxPoint x="365" y="340" as="targetPoint" />
          </mxGeometry>
        </mxCell>
        <mxCell id="HX4FQDaYf_B5SBjf3QtH-101" value="" style="endArrow=none;html=1;rounded=0;" parent="1" edge="1">
          <mxGeometry width="50" height="50" relative="1" as="geometry">
            <mxPoint x="340" y="355" as="sourcePoint" />
            <mxPoint x="350" y="365" as="targetPoint" />
          </mxGeometry>
        </mxCell>
        <mxCell id="HX4FQDaYf_B5SBjf3QtH-102" value="1" style="resizable=0;html=1;whiteSpace=wrap;align=right;verticalAlign=bottom;" parent="1" connectable="0" vertex="1">
          <mxGeometry x="360.0038898839574" y="380.0024713387385" as="geometry" />
        </mxCell>
        <mxCell id="HX4FQDaYf_B5SBjf3QtH-103" value="" style="endArrow=none;html=1;rounded=0;" parent="1" edge="1">
          <mxGeometry width="50" height="50" relative="1" as="geometry">
            <mxPoint x="230" y="440" as="sourcePoint" />
            <mxPoint x="240" y="450" as="targetPoint" />
          </mxGeometry>
        </mxCell>
        <mxCell id="HX4FQDaYf_B5SBjf3QtH-104" value="M" style="resizable=0;html=1;whiteSpace=wrap;align=right;verticalAlign=bottom;" parent="1" connectable="0" vertex="1">
          <mxGeometry x="289.99987761439917" y="427.5040520078388" as="geometry">
            <mxPoint x="-37" y="34" as="offset" />
          </mxGeometry>
        </mxCell>
        <mxCell id="HX4FQDaYf_B5SBjf3QtH-107" value="&lt;font style=&quot;font-size: 7px;&quot;&gt;дата начала&lt;/font&gt;" style="ellipse;whiteSpace=wrap;html=1;" parent="1" vertex="1">
          <mxGeometry x="430" y="540" width="50" height="20" as="geometry" />
        </mxCell>
        <mxCell id="HX4FQDaYf_B5SBjf3QtH-109" value="&lt;font style=&quot;font-size: 6px;&quot;&gt;дата завершения&lt;/font&gt;" style="ellipse;whiteSpace=wrap;html=1;" parent="1" vertex="1">
          <mxGeometry x="400" y="510" width="60" height="30" as="geometry" />
        </mxCell>
        <mxCell id="HX4FQDaYf_B5SBjf3QtH-110" value="&lt;font style=&quot;font-size: 9px;&quot;&gt;стоимость&lt;/font&gt;" style="ellipse;whiteSpace=wrap;html=1;" parent="1" vertex="1">
          <mxGeometry x="455" y="560" width="50" height="20" as="geometry" />
        </mxCell>
        <mxCell id="HX4FQDaYf_B5SBjf3QtH-111" value="&lt;font style=&quot;font-size: 6px;&quot;&gt;дата заключения договора&lt;/font&gt;" style="ellipse;whiteSpace=wrap;html=1;" parent="1" vertex="1">
          <mxGeometry x="455" y="580" width="105" height="25" as="geometry" />
        </mxCell>
        <mxCell id="HX4FQDaYf_B5SBjf3QtH-112" value="&lt;font style=&quot;font-size: 6px;&quot;&gt;статус выполнения&lt;/font&gt;" style="ellipse;whiteSpace=wrap;html=1;" parent="1" vertex="1">
          <mxGeometry x="455" y="610" width="65" height="20" as="geometry" />
        </mxCell>
        <mxCell id="HX4FQDaYf_B5SBjf3QtH-113" value="название" style="ellipse;whiteSpace=wrap;html=1;" parent="1" vertex="1">
          <mxGeometry x="434" y="690" width="66" height="30" as="geometry" />
        </mxCell>
        <mxCell id="HX4FQDaYf_B5SBjf3QtH-118" value="&lt;font style=&quot;font-size: 9px;&quot;&gt;&lt;u&gt;ID Проекта-Договора&lt;/u&gt;&lt;/font&gt;" style="ellipse;whiteSpace=wrap;html=1;" parent="1" vertex="1">
          <mxGeometry x="260" y="510" width="65" height="30" as="geometry" />
        </mxCell>
        <mxCell id="HX4FQDaYf_B5SBjf3QtH-119" value="&lt;pre style=&quot;line-height: 100%;&quot;&gt;&lt;font style=&quot;font-size: 7px;&quot;&gt;срок выполнения&lt;/font&gt;&lt;/pre&gt;" style="ellipse;whiteSpace=wrap;html=1;" parent="1" vertex="1">
          <mxGeometry x="327.5" y="490" width="65" height="30" as="geometry" />
        </mxCell>
        <mxCell id="HX4FQDaYf_B5SBjf3QtH-120" value="" style="endArrow=none;html=1;rounded=0;entryX=0.5;entryY=1;entryDx=0;entryDy=0;exitX=0.561;exitY=-0.003;exitDx=0;exitDy=0;exitPerimeter=0;" parent="1" target="HX4FQDaYf_B5SBjf3QtH-109" edge="1">
          <mxGeometry width="50" height="50" relative="1" as="geometry">
            <mxPoint x="401.10000000000014" y="569.85" as="sourcePoint" />
            <mxPoint x="440" y="590" as="targetPoint" />
          </mxGeometry>
        </mxCell>
        <mxCell id="HX4FQDaYf_B5SBjf3QtH-121" value="" style="endArrow=none;html=1;rounded=0;entryX=0;entryY=1;entryDx=0;entryDy=0;exitX=0.657;exitY=-0.003;exitDx=0;exitDy=0;exitPerimeter=0;" parent="1" target="HX4FQDaYf_B5SBjf3QtH-107" edge="1">
          <mxGeometry width="50" height="50" relative="1" as="geometry">
            <mxPoint x="410.70000000000005" y="569.85" as="sourcePoint" />
            <mxPoint x="440" y="550" as="targetPoint" />
          </mxGeometry>
        </mxCell>
        <mxCell id="HX4FQDaYf_B5SBjf3QtH-122" value="" style="endArrow=none;html=1;rounded=0;entryX=0;entryY=0.5;entryDx=0;entryDy=0;exitX=0.977;exitY=0.048;exitDx=0;exitDy=0;exitPerimeter=0;" parent="1" target="HX4FQDaYf_B5SBjf3QtH-110" edge="1">
          <mxGeometry width="50" height="50" relative="1" as="geometry">
            <mxPoint x="442.70000000000005" y="572.4" as="sourcePoint" />
            <mxPoint x="440" y="550" as="targetPoint" />
          </mxGeometry>
        </mxCell>
        <mxCell id="HX4FQDaYf_B5SBjf3QtH-123" value="" style="endArrow=none;html=1;rounded=0;entryX=0;entryY=0.5;entryDx=0;entryDy=0;exitX=1;exitY=0.5;exitDx=0;exitDy=0;" parent="1" target="HX4FQDaYf_B5SBjf3QtH-111" edge="1">
          <mxGeometry width="50" height="50" relative="1" as="geometry">
            <mxPoint x="445" y="595" as="sourcePoint" />
            <mxPoint x="440" y="570" as="targetPoint" />
          </mxGeometry>
        </mxCell>
        <mxCell id="HX4FQDaYf_B5SBjf3QtH-124" value="" style="endArrow=none;html=1;rounded=0;entryX=0;entryY=0.5;entryDx=0;entryDy=0;exitX=1;exitY=0.75;exitDx=0;exitDy=0;" parent="1" target="HX4FQDaYf_B5SBjf3QtH-112" edge="1">
          <mxGeometry width="50" height="50" relative="1" as="geometry">
            <mxPoint x="445" y="607.5" as="sourcePoint" />
            <mxPoint x="440" y="590" as="targetPoint" />
          </mxGeometry>
        </mxCell>
        <mxCell id="HX4FQDaYf_B5SBjf3QtH-125" value="" style="endArrow=none;html=1;rounded=0;entryX=0.5;entryY=0;entryDx=0;entryDy=0;exitX=0.75;exitY=1;exitDx=0;exitDy=0;" parent="1" target="HX4FQDaYf_B5SBjf3QtH-113" edge="1">
          <mxGeometry width="50" height="50" relative="1" as="geometry">
            <mxPoint x="420" y="620" as="sourcePoint" />
            <mxPoint x="440" y="590" as="targetPoint" />
          </mxGeometry>
        </mxCell>
        <mxCell id="HX4FQDaYf_B5SBjf3QtH-130" value="" style="endArrow=none;html=1;rounded=0;exitX=1;exitY=0.5;exitDx=0;exitDy=0;entryX=0.004;entryY=0.093;entryDx=0;entryDy=0;entryPerimeter=0;" parent="1" source="HX4FQDaYf_B5SBjf3QtH-118" edge="1">
          <mxGeometry width="50" height="50" relative="1" as="geometry">
            <mxPoint x="340" y="600" as="sourcePoint" />
            <mxPoint x="345.4000000000001" y="574.65" as="targetPoint" />
          </mxGeometry>
        </mxCell>
        <mxCell id="HX4FQDaYf_B5SBjf3QtH-131" value="" style="endArrow=none;html=1;rounded=0;entryX=0.5;entryY=1;entryDx=0;entryDy=0;exitX=0.25;exitY=0;exitDx=0;exitDy=0;" parent="1" target="HX4FQDaYf_B5SBjf3QtH-119" edge="1">
          <mxGeometry width="50" height="50" relative="1" as="geometry">
            <mxPoint x="370" y="570" as="sourcePoint" />
            <mxPoint x="390" y="550" as="targetPoint" />
          </mxGeometry>
        </mxCell>
        <mxCell id="HX4FQDaYf_B5SBjf3QtH-132" value="" style="line;strokeWidth=1;rotatable=0;dashed=0;labelPosition=right;align=left;verticalAlign=middle;spacingTop=0;spacingLeft=6;points=[];portConstraint=eastwest;" parent="1" vertex="1">
          <mxGeometry x="390" y="355" width="10" height="10" as="geometry" />
        </mxCell>
        <mxCell id="HX4FQDaYf_B5SBjf3QtH-134" value="" style="endArrow=none;html=1;rounded=0;entryX=0.5;entryY=1;entryDx=0;entryDy=0;" parent="1" edge="1">
          <mxGeometry width="50" height="50" relative="1" as="geometry">
            <mxPoint x="395" y="570" as="sourcePoint" />
            <mxPoint x="395" y="510" as="targetPoint" />
          </mxGeometry>
        </mxCell>
        <mxCell id="HX4FQDaYf_B5SBjf3QtH-135" value="1" style="resizable=0;html=1;whiteSpace=wrap;align=right;verticalAlign=bottom;" parent="1" connectable="0" vertex="1">
          <mxGeometry x="385" y="365" as="geometry" />
        </mxCell>
        <mxCell id="HX4FQDaYf_B5SBjf3QtH-138" value="" style="endArrow=none;html=1;rounded=0;entryX=0.5;entryY=1;entryDx=0;entryDy=0;" parent="1" source="HX4FQDaYf_B5SBjf3QtH-139" edge="1">
          <mxGeometry width="50" height="50" relative="1" as="geometry">
            <mxPoint x="395" y="510" as="sourcePoint" />
            <mxPoint x="395" y="455" as="targetPoint" />
          </mxGeometry>
        </mxCell>
        <mxCell id="HX4FQDaYf_B5SBjf3QtH-140" value="" style="endArrow=none;html=1;rounded=0;entryX=0.5;entryY=1;entryDx=0;entryDy=0;" parent="1" target="HX4FQDaYf_B5SBjf3QtH-139" edge="1">
          <mxGeometry width="50" height="50" relative="1" as="geometry">
            <mxPoint x="395" y="510" as="sourcePoint" />
            <mxPoint x="395" y="455" as="targetPoint" />
          </mxGeometry>
        </mxCell>
        <mxCell id="HX4FQDaYf_B5SBjf3QtH-139" value="" style="line;strokeWidth=1;rotatable=0;dashed=0;labelPosition=right;align=left;verticalAlign=middle;spacingTop=0;spacingLeft=6;points=[];portConstraint=eastwest;" parent="1" vertex="1">
          <mxGeometry x="390" y="450" width="10" height="10" as="geometry" />
        </mxCell>
        <mxCell id="HX4FQDaYf_B5SBjf3QtH-141" value="м" style="text;html=1;align=center;verticalAlign=middle;resizable=0;points=[];autosize=1;strokeColor=none;fillColor=none;" parent="1" vertex="1">
          <mxGeometry x="370" y="440" width="30" height="30" as="geometry" />
        </mxCell>
        <mxCell id="HX4FQDaYf_B5SBjf3QtH-142" value="" style="endArrow=none;html=1;rounded=0;" parent="1" edge="1">
          <mxGeometry width="50" height="50" relative="1" as="geometry">
            <mxPoint x="250" y="760" as="sourcePoint" />
            <mxPoint x="400" y="620" as="targetPoint" />
          </mxGeometry>
        </mxCell>
        <mxCell id="HX4FQDaYf_B5SBjf3QtH-143" value="Оплата" style="shape=trapezoid;perimeter=trapezoidPerimeter;whiteSpace=wrap;html=1;fixedSize=1;" parent="1" vertex="1">
          <mxGeometry x="150" y="740" width="120" height="60" as="geometry" />
        </mxCell>
        <mxCell id="HX4FQDaYf_B5SBjf3QtH-146" value="Статус оплаты" style="ellipse;whiteSpace=wrap;html=1;" parent="1" vertex="1">
          <mxGeometry x="80" y="820" width="80" height="30" as="geometry" />
        </mxCell>
        <mxCell id="HX4FQDaYf_B5SBjf3QtH-147" value="Дата оплаты" style="ellipse;whiteSpace=wrap;html=1;" parent="1" vertex="1">
          <mxGeometry x="50" y="770" width="70" height="35" as="geometry" />
        </mxCell>
        <mxCell id="HX4FQDaYf_B5SBjf3QtH-148" value="Сумма к оплате" style="ellipse;whiteSpace=wrap;html=1;" parent="1" vertex="1">
          <mxGeometry x="175" y="820" width="70" height="35" as="geometry" />
        </mxCell>
        <mxCell id="HX4FQDaYf_B5SBjf3QtH-149" value="Способ оплаты" style="ellipse;whiteSpace=wrap;html=1;" parent="1" vertex="1">
          <mxGeometry x="70" y="720" width="70" height="35" as="geometry" />
        </mxCell>
        <mxCell id="HX4FQDaYf_B5SBjf3QtH-150" value="&lt;u&gt;ID Оплаты&lt;/u&gt;" style="ellipse;whiteSpace=wrap;html=1;" parent="1" vertex="1">
          <mxGeometry x="275" y="815" width="70" height="35" as="geometry" />
        </mxCell>
        <mxCell id="HX4FQDaYf_B5SBjf3QtH-151" value="&lt;font style=&quot;font-size: 11px;&quot;&gt;&lt;u&gt;ID Проекта-договора&lt;/u&gt;&lt;/font&gt;" style="ellipse;whiteSpace=wrap;html=1;" parent="1" vertex="1">
          <mxGeometry x="275" y="765" width="70" height="35" as="geometry" />
        </mxCell>
        <mxCell id="HX4FQDaYf_B5SBjf3QtH-152" value="" style="endArrow=none;html=1;rounded=0;entryX=0;entryY=0.5;entryDx=0;entryDy=0;exitX=1;exitY=0.5;exitDx=0;exitDy=0;" parent="1" source="HX4FQDaYf_B5SBjf3QtH-143" target="HX4FQDaYf_B5SBjf3QtH-151" edge="1">
          <mxGeometry width="50" height="50" relative="1" as="geometry">
            <mxPoint x="310" y="700" as="sourcePoint" />
            <mxPoint x="360" y="650" as="targetPoint" />
          </mxGeometry>
        </mxCell>
        <mxCell id="HX4FQDaYf_B5SBjf3QtH-153" value="" style="endArrow=none;html=1;rounded=0;entryX=0;entryY=0;entryDx=0;entryDy=0;" parent="1" source="HX4FQDaYf_B5SBjf3QtH-143" target="HX4FQDaYf_B5SBjf3QtH-150" edge="1">
          <mxGeometry width="50" height="50" relative="1" as="geometry">
            <mxPoint x="310" y="700" as="sourcePoint" />
            <mxPoint x="360" y="650" as="targetPoint" />
          </mxGeometry>
        </mxCell>
        <mxCell id="HX4FQDaYf_B5SBjf3QtH-154" value="" style="endArrow=none;html=1;rounded=0;entryX=0.5;entryY=0;entryDx=0;entryDy=0;exitX=0.5;exitY=1;exitDx=0;exitDy=0;" parent="1" source="HX4FQDaYf_B5SBjf3QtH-143" target="HX4FQDaYf_B5SBjf3QtH-148" edge="1">
          <mxGeometry width="50" height="50" relative="1" as="geometry">
            <mxPoint x="310" y="700" as="sourcePoint" />
            <mxPoint x="360" y="650" as="targetPoint" />
          </mxGeometry>
        </mxCell>
        <mxCell id="HX4FQDaYf_B5SBjf3QtH-155" value="" style="endArrow=none;html=1;rounded=0;exitX=1;exitY=0;exitDx=0;exitDy=0;entryX=0.25;entryY=1;entryDx=0;entryDy=0;" parent="1" source="HX4FQDaYf_B5SBjf3QtH-146" target="HX4FQDaYf_B5SBjf3QtH-143" edge="1">
          <mxGeometry width="50" height="50" relative="1" as="geometry">
            <mxPoint x="310" y="700" as="sourcePoint" />
            <mxPoint x="360" y="650" as="targetPoint" />
          </mxGeometry>
        </mxCell>
        <mxCell id="HX4FQDaYf_B5SBjf3QtH-156" value="" style="endArrow=none;html=1;rounded=0;exitX=1;exitY=0.5;exitDx=0;exitDy=0;entryX=0;entryY=0.5;entryDx=0;entryDy=0;" parent="1" source="HX4FQDaYf_B5SBjf3QtH-147" target="HX4FQDaYf_B5SBjf3QtH-143" edge="1">
          <mxGeometry width="50" height="50" relative="1" as="geometry">
            <mxPoint x="310" y="700" as="sourcePoint" />
            <mxPoint x="360" y="650" as="targetPoint" />
          </mxGeometry>
        </mxCell>
        <mxCell id="HX4FQDaYf_B5SBjf3QtH-157" value="" style="endArrow=none;html=1;rounded=0;exitX=1;exitY=0.5;exitDx=0;exitDy=0;entryX=0;entryY=0;entryDx=0;entryDy=0;" parent="1" source="HX4FQDaYf_B5SBjf3QtH-149" target="HX4FQDaYf_B5SBjf3QtH-143" edge="1">
          <mxGeometry width="50" height="50" relative="1" as="geometry">
            <mxPoint x="310" y="700" as="sourcePoint" />
            <mxPoint x="360" y="650" as="targetPoint" />
          </mxGeometry>
        </mxCell>
        <mxCell id="HX4FQDaYf_B5SBjf3QtH-158" value="" style="endArrow=none;html=1;rounded=0;" parent="1" edge="1">
          <mxGeometry width="50" height="50" relative="1" as="geometry">
            <mxPoint x="270" y="732.5" as="sourcePoint" />
            <mxPoint x="280" y="742.5" as="targetPoint" />
          </mxGeometry>
        </mxCell>
        <mxCell id="HX4FQDaYf_B5SBjf3QtH-159" value="M" style="resizable=0;html=1;whiteSpace=wrap;align=right;verticalAlign=bottom;" parent="1" connectable="0" vertex="1">
          <mxGeometry x="334.99987761439917" y="720.0040520078388" as="geometry">
            <mxPoint x="-37" y="34" as="offset" />
          </mxGeometry>
        </mxCell>
        <mxCell id="HX4FQDaYf_B5SBjf3QtH-160" value="" style="endArrow=none;html=1;rounded=0;" parent="1" edge="1">
          <mxGeometry width="50" height="50" relative="1" as="geometry">
            <mxPoint x="370" y="640" as="sourcePoint" />
            <mxPoint x="380" y="650" as="targetPoint" />
          </mxGeometry>
        </mxCell>
        <mxCell id="HX4FQDaYf_B5SBjf3QtH-161" value="1" style="resizable=0;html=1;whiteSpace=wrap;align=right;verticalAlign=bottom;" parent="1" connectable="0" vertex="1">
          <mxGeometry x="390.0038898839574" y="660.0024713387385" as="geometry" />
        </mxCell>
        <mxCell id="HX4FQDaYf_B5SBjf3QtH-162" value="" style="endArrow=none;html=1;rounded=0;entryX=0.644;entryY=0.989;entryDx=0;entryDy=0;entryPerimeter=0;" parent="1" edge="1">
          <mxGeometry width="50" height="50" relative="1" as="geometry">
            <mxPoint x="420" y="830" as="sourcePoint" />
            <mxPoint x="409.4000000000001" y="619.4499999999999" as="targetPoint" />
          </mxGeometry>
        </mxCell>
        <mxCell id="HX4FQDaYf_B5SBjf3QtH-164" value="" style="endArrow=none;html=1;rounded=0;entryX=0.25;entryY=1;entryDx=0;entryDy=0;" parent="1" edge="1">
          <mxGeometry width="50" height="50" relative="1" as="geometry">
            <mxPoint x="400" y="890" as="sourcePoint" />
            <mxPoint x="425" y="870" as="targetPoint" />
          </mxGeometry>
        </mxCell>
        <mxCell id="HX4FQDaYf_B5SBjf3QtH-165" value="&lt;u&gt;ID Организации&lt;/u&gt;" style="ellipse;whiteSpace=wrap;html=1;" parent="1" vertex="1">
          <mxGeometry x="350" y="880" width="80" height="50" as="geometry" />
        </mxCell>
        <mxCell id="HX4FQDaYf_B5SBjf3QtH-166" value="" style="endArrow=none;html=1;rounded=0;entryX=0.75;entryY=1;entryDx=0;entryDy=0;" parent="1" edge="1">
          <mxGeometry width="50" height="50" relative="1" as="geometry">
            <mxPoint x="480" y="910" as="sourcePoint" />
            <mxPoint x="475" y="870" as="targetPoint" />
          </mxGeometry>
        </mxCell>
        <mxCell id="HX4FQDaYf_B5SBjf3QtH-167" value="Контакты организации" style="ellipse;whiteSpace=wrap;html=1;" parent="1" vertex="1">
          <mxGeometry x="450" y="910" width="80" height="50" as="geometry" />
        </mxCell>
        <mxCell id="HX4FQDaYf_B5SBjf3QtH-168" value="Название организации" style="ellipse;whiteSpace=wrap;html=1;" parent="1" vertex="1">
          <mxGeometry x="530" y="825" width="90" height="50" as="geometry" />
        </mxCell>
        <mxCell id="HX4FQDaYf_B5SBjf3QtH-169" value="" style="endArrow=none;html=1;rounded=0;exitX=0;exitY=0.5;exitDx=0;exitDy=0;entryX=1;entryY=0.5;entryDx=0;entryDy=0;" parent="1" source="HX4FQDaYf_B5SBjf3QtH-168" edge="1">
          <mxGeometry width="50" height="50" relative="1" as="geometry">
            <mxPoint x="260" y="860" as="sourcePoint" />
            <mxPoint x="500" y="850" as="targetPoint" />
          </mxGeometry>
        </mxCell>
        <mxCell id="HX4FQDaYf_B5SBjf3QtH-173" value="" style="endArrow=none;html=1;rounded=0;" parent="1" edge="1">
          <mxGeometry width="50" height="50" relative="1" as="geometry">
            <mxPoint x="410" y="810" as="sourcePoint" />
            <mxPoint x="430" y="810" as="targetPoint" />
          </mxGeometry>
        </mxCell>
        <mxCell id="HX4FQDaYf_B5SBjf3QtH-174" value="M" style="resizable=0;html=1;whiteSpace=wrap;align=right;verticalAlign=bottom;" parent="1" connectable="0" vertex="1">
          <mxGeometry x="429.99987761439917" y="655.0040520078388" as="geometry">
            <mxPoint x="-37" y="34" as="offset" />
          </mxGeometry>
        </mxCell>
        <mxCell id="HX4FQDaYf_B5SBjf3QtH-175" value="1" style="resizable=0;html=1;whiteSpace=wrap;align=right;verticalAlign=bottom;" parent="1" connectable="0" vertex="1">
          <mxGeometry x="440.0038898839574" y="820.0024713387385" as="geometry" />
        </mxCell>
        <mxCell id="HX4FQDaYf_B5SBjf3QtH-176" value="" style="endArrow=none;html=1;rounded=0;" parent="1" edge="1">
          <mxGeometry width="50" height="50" relative="1" as="geometry">
            <mxPoint x="400" y="680" as="sourcePoint" />
            <mxPoint x="430" y="680" as="targetPoint" />
          </mxGeometry>
        </mxCell>
        <mxCell id="HX4FQDaYf_B5SBjf3QtH-179" value="&lt;u&gt;ID Этапа&lt;/u&gt;" style="ellipse;whiteSpace=wrap;html=1;" parent="1" vertex="1">
          <mxGeometry x="90" y="345" width="60" height="30" as="geometry" />
        </mxCell>
        <mxCell id="HX4FQDaYf_B5SBjf3QtH-180" value="&lt;font style=&quot;font-size: 8px;&quot;&gt;&lt;u&gt;ID&amp;nbsp; Выполняющего&lt;/u&gt;&lt;/font&gt;" style="ellipse;whiteSpace=wrap;html=1;" parent="1" vertex="1">
          <mxGeometry x="40" y="392.5" width="70" height="35" as="geometry" />
        </mxCell>
        <mxCell id="HX4FQDaYf_B5SBjf3QtH-181" value="&lt;u&gt;ID Задания&lt;/u&gt;" style="ellipse;whiteSpace=wrap;html=1;" parent="1" vertex="1">
          <mxGeometry x="-30" y="420" width="60" height="40" as="geometry" />
        </mxCell>
        <mxCell id="HX4FQDaYf_B5SBjf3QtH-182" value="Дата начала" style="ellipse;whiteSpace=wrap;html=1;" parent="1" vertex="1">
          <mxGeometry x="-60" y="470" width="60" height="30" as="geometry" />
        </mxCell>
        <mxCell id="HX4FQDaYf_B5SBjf3QtH-183" value="Дата конца" style="ellipse;whiteSpace=wrap;html=1;" parent="1" vertex="1">
          <mxGeometry x="100" y="490" width="60" height="30" as="geometry" />
        </mxCell>
        <mxCell id="HX4FQDaYf_B5SBjf3QtH-184" value="Название работы" style="ellipse;whiteSpace=wrap;html=1;" parent="1" vertex="1">
          <mxGeometry x="145" y="385" width="70" height="40" as="geometry" />
        </mxCell>
        <mxCell id="HX4FQDaYf_B5SBjf3QtH-185" value="Статус выполнения" style="ellipse;whiteSpace=wrap;html=1;" parent="1" vertex="1">
          <mxGeometry x="2.5" y="490" width="95" height="30" as="geometry" />
        </mxCell>
        <mxCell id="HX4FQDaYf_B5SBjf3QtH-186" value="" style="endArrow=none;html=1;rounded=0;entryX=0;entryY=0.75;entryDx=0;entryDy=0;exitX=0.5;exitY=0;exitDx=0;exitDy=0;" parent="1" source="HX4FQDaYf_B5SBjf3QtH-185" target="tO4NBVC32cCDoz9cuNgk-6" edge="1">
          <mxGeometry width="50" height="50" relative="1" as="geometry">
            <mxPoint x="210" y="560" as="sourcePoint" />
            <mxPoint x="175" y="480" as="targetPoint" />
          </mxGeometry>
        </mxCell>
        <mxCell id="HX4FQDaYf_B5SBjf3QtH-187" value="" style="endArrow=none;html=1;rounded=0;entryX=0.25;entryY=1;entryDx=0;entryDy=0;exitX=0.5;exitY=0;exitDx=0;exitDy=0;" parent="1" source="HX4FQDaYf_B5SBjf3QtH-183" target="tO4NBVC32cCDoz9cuNgk-6" edge="1">
          <mxGeometry width="50" height="50" relative="1" as="geometry">
            <mxPoint x="210" y="560" as="sourcePoint" />
            <mxPoint x="197.5" y="480" as="targetPoint" />
          </mxGeometry>
        </mxCell>
        <mxCell id="HX4FQDaYf_B5SBjf3QtH-188" value="" style="endArrow=none;html=1;rounded=0;entryX=0;entryY=0.5;entryDx=0;entryDy=0;" parent="1" source="HX4FQDaYf_B5SBjf3QtH-182" target="tO4NBVC32cCDoz9cuNgk-6" edge="1">
          <mxGeometry width="50" height="50" relative="1" as="geometry">
            <mxPoint x="210" y="560" as="sourcePoint" />
            <mxPoint x="152.5" y="480" as="targetPoint" />
          </mxGeometry>
        </mxCell>
        <mxCell id="HX4FQDaYf_B5SBjf3QtH-189" value="" style="endArrow=none;html=1;rounded=0;entryX=0;entryY=0.5;entryDx=0;entryDy=0;" parent="1" source="HX4FQDaYf_B5SBjf3QtH-181" edge="1">
          <mxGeometry width="50" height="50" relative="1" as="geometry">
            <mxPoint x="210" y="560" as="sourcePoint" />
            <mxPoint x="130" y="460" as="targetPoint" />
          </mxGeometry>
        </mxCell>
        <mxCell id="HX4FQDaYf_B5SBjf3QtH-190" value="" style="endArrow=none;html=1;rounded=0;exitX=0.421;exitY=0.013;exitDx=0;exitDy=0;exitPerimeter=0;" parent="1" source="tO4NBVC32cCDoz9cuNgk-6" target="HX4FQDaYf_B5SBjf3QtH-184" edge="1">
          <mxGeometry width="50" height="50" relative="1" as="geometry">
            <mxPoint x="175" y="440" as="sourcePoint" />
            <mxPoint x="260" y="510" as="targetPoint" />
          </mxGeometry>
        </mxCell>
        <mxCell id="HX4FQDaYf_B5SBjf3QtH-191" value="" style="endArrow=none;html=1;rounded=0;exitX=0.25;exitY=0;exitDx=0;exitDy=0;" parent="1" source="tO4NBVC32cCDoz9cuNgk-6" target="HX4FQDaYf_B5SBjf3QtH-179" edge="1">
          <mxGeometry width="50" height="50" relative="1" as="geometry">
            <mxPoint x="152.5" y="440" as="sourcePoint" />
            <mxPoint x="260" y="510" as="targetPoint" />
          </mxGeometry>
        </mxCell>
        <mxCell id="HX4FQDaYf_B5SBjf3QtH-192" value="" style="endArrow=none;html=1;rounded=0;entryX=1;entryY=0.5;entryDx=0;entryDy=0;exitX=0;exitY=0.25;exitDx=0;exitDy=0;" parent="1" target="HX4FQDaYf_B5SBjf3QtH-180" edge="1">
          <mxGeometry width="50" height="50" relative="1" as="geometry">
            <mxPoint x="130" y="450" as="sourcePoint" />
            <mxPoint x="260" y="510" as="targetPoint" />
          </mxGeometry>
        </mxCell>
        <mxCell id="HX4FQDaYf_B5SBjf3QtH-195" value="" style="endArrow=none;html=1;rounded=0;entryX=0.5;entryY=1;entryDx=0;entryDy=0;" parent="1" edge="1">
          <mxGeometry width="50" height="50" relative="1" as="geometry">
            <mxPoint x="170" y="580" as="sourcePoint" />
            <mxPoint x="395" y="340" as="targetPoint" />
          </mxGeometry>
        </mxCell>
        <mxCell id="HX4FQDaYf_B5SBjf3QtH-196" value="" style="endArrow=none;html=1;rounded=0;" parent="1" edge="1">
          <mxGeometry width="50" height="50" relative="1" as="geometry">
            <mxPoint x="360" y="370" as="sourcePoint" />
            <mxPoint x="370" y="380" as="targetPoint" />
          </mxGeometry>
        </mxCell>
        <mxCell id="HX4FQDaYf_B5SBjf3QtH-197" value="1" style="resizable=0;html=1;whiteSpace=wrap;align=right;verticalAlign=bottom;" parent="1" connectable="0" vertex="1">
          <mxGeometry x="380.0038898839574" y="392.5024713387385" as="geometry" />
        </mxCell>
        <mxCell id="HX4FQDaYf_B5SBjf3QtH-198" value="" style="endArrow=none;html=1;rounded=0;" parent="1" edge="1">
          <mxGeometry width="50" height="50" relative="1" as="geometry">
            <mxPoint x="185" y="550" as="sourcePoint" />
            <mxPoint x="205" y="560" as="targetPoint" />
          </mxGeometry>
        </mxCell>
        <mxCell id="HX4FQDaYf_B5SBjf3QtH-199" value="M" style="resizable=0;html=1;whiteSpace=wrap;align=right;verticalAlign=bottom;" parent="1" connectable="0" vertex="1">
          <mxGeometry x="259.99987761439917" y="535.0040520078388" as="geometry">
            <mxPoint x="-37" y="34" as="offset" />
          </mxGeometry>
        </mxCell>
        <mxCell id="HX4FQDaYf_B5SBjf3QtH-201" value="&lt;font style=&quot;font-size: 8px;&quot;&gt;Статус выполнения&lt;/font&gt;" style="ellipse;whiteSpace=wrap;html=1;" parent="1" vertex="1">
          <mxGeometry x="-40" y="680" width="60" height="30" as="geometry" />
        </mxCell>
        <mxCell id="HX4FQDaYf_B5SBjf3QtH-202" value="&lt;font style=&quot;font-size: 8px;&quot;&gt;Срок выполнения&lt;/font&gt;" style="ellipse;whiteSpace=wrap;html=1;" parent="1" vertex="1">
          <mxGeometry x="-10" y="720" width="65" height="30" as="geometry" />
        </mxCell>
        <mxCell id="HX4FQDaYf_B5SBjf3QtH-203" value="&lt;font style=&quot;font-size: 8px;&quot;&gt;Поощрение за задание&lt;/font&gt;" style="ellipse;whiteSpace=wrap;html=1;" parent="1" vertex="1">
          <mxGeometry x="40" y="625" width="65" height="40" as="geometry" />
        </mxCell>
        <mxCell id="HX4FQDaYf_B5SBjf3QtH-204" value="Названия задания" style="ellipse;whiteSpace=wrap;html=1;" parent="1" vertex="1">
          <mxGeometry x="-20" y="590" width="100" height="30" as="geometry" />
        </mxCell>
        <mxCell id="HX4FQDaYf_B5SBjf3QtH-205" value="" style="endArrow=none;html=1;rounded=0;entryX=0.75;entryY=1;entryDx=0;entryDy=0;exitX=0.5;exitY=0;exitDx=0;exitDy=0;" parent="1" edge="1">
          <mxGeometry width="50" height="50" relative="1" as="geometry">
            <mxPoint x="170" y="580" as="sourcePoint" />
            <mxPoint x="197.5" y="480" as="targetPoint" />
          </mxGeometry>
        </mxCell>
        <mxCell id="HX4FQDaYf_B5SBjf3QtH-206" value="" style="endArrow=none;html=1;rounded=0;entryX=0;entryY=0.25;entryDx=0;entryDy=0;exitX=1;exitY=0.5;exitDx=0;exitDy=0;" parent="1" edge="1">
          <mxGeometry width="50" height="50" relative="1" as="geometry">
            <mxPoint x="210" y="590" as="sourcePoint" />
            <mxPoint x="345" y="582.5" as="targetPoint" />
          </mxGeometry>
        </mxCell>
        <mxCell id="HX4FQDaYf_B5SBjf3QtH-207" value="&lt;u&gt;ID Проверяющегося&lt;/u&gt;" style="ellipse;whiteSpace=wrap;html=1;" parent="1" vertex="1">
          <mxGeometry x="-120" y="650" width="140" height="20" as="geometry" />
        </mxCell>
        <mxCell id="HX4FQDaYf_B5SBjf3QtH-208" value="&lt;u&gt;ID Задания&lt;/u&gt;" style="ellipse;whiteSpace=wrap;html=1;" parent="1" vertex="1">
          <mxGeometry y="560" width="80" height="20" as="geometry" />
        </mxCell>
        <mxCell id="HX4FQDaYf_B5SBjf3QtH-209" value="&lt;font style=&quot;font-size: 11px;&quot;&gt;Дата проверки&lt;/font&gt;" style="ellipse;whiteSpace=wrap;html=1;" parent="1" vertex="1">
          <mxGeometry x="170" y="677.5" width="75" height="30" as="geometry" />
        </mxCell>
        <mxCell id="HX4FQDaYf_B5SBjf3QtH-210" value="&lt;u&gt;ID Проекта&lt;/u&gt;" style="ellipse;whiteSpace=wrap;html=1;" parent="1" vertex="1">
          <mxGeometry x="60" y="530" width="70" height="30" as="geometry" />
        </mxCell>
        <mxCell id="HX4FQDaYf_B5SBjf3QtH-211" value="" style="endArrow=none;html=1;rounded=0;exitX=0.5;exitY=0;exitDx=0;exitDy=0;entryX=0.327;entryY=0.977;entryDx=0;entryDy=0;entryPerimeter=0;" parent="1" source="HX4FQDaYf_B5SBjf3QtH-202" target="tO4NBVC32cCDoz9cuNgk-25" edge="1">
          <mxGeometry width="50" height="50" relative="1" as="geometry">
            <mxPoint x="110" y="670" as="sourcePoint" />
            <mxPoint x="160" y="670" as="targetPoint" />
          </mxGeometry>
        </mxCell>
        <mxCell id="HX4FQDaYf_B5SBjf3QtH-213" value="" style="endArrow=none;html=1;rounded=0;exitX=1;exitY=0;exitDx=0;exitDy=0;entryX=0.323;entryY=1.02;entryDx=0;entryDy=0;entryPerimeter=0;" parent="1" source="HX4FQDaYf_B5SBjf3QtH-203" target="tO4NBVC32cCDoz9cuNgk-7" edge="1">
          <mxGeometry width="50" height="50" relative="1" as="geometry">
            <mxPoint x="110" y="670" as="sourcePoint" />
            <mxPoint x="130" y="660" as="targetPoint" />
          </mxGeometry>
        </mxCell>
        <mxCell id="HX4FQDaYf_B5SBjf3QtH-214" value="" style="endArrow=none;html=1;rounded=0;entryX=0.25;entryY=1;entryDx=0;entryDy=0;exitX=1;exitY=0;exitDx=0;exitDy=0;" parent="1" source="HX4FQDaYf_B5SBjf3QtH-204" edge="1">
          <mxGeometry width="50" height="50" relative="1" as="geometry">
            <mxPoint x="110" y="670" as="sourcePoint" />
            <mxPoint x="150" y="600" as="targetPoint" />
          </mxGeometry>
        </mxCell>
        <mxCell id="HX4FQDaYf_B5SBjf3QtH-215" value="" style="endArrow=none;html=1;rounded=0;exitX=0;exitY=0.5;exitDx=0;exitDy=0;entryX=0.925;entryY=0.959;entryDx=0;entryDy=0;entryPerimeter=0;" parent="1" source="HX4FQDaYf_B5SBjf3QtH-209" target="tO4NBVC32cCDoz9cuNgk-25" edge="1">
          <mxGeometry width="50" height="50" relative="1" as="geometry">
            <mxPoint x="110" y="670" as="sourcePoint" />
            <mxPoint x="240" y="660" as="targetPoint" />
          </mxGeometry>
        </mxCell>
        <mxCell id="HX4FQDaYf_B5SBjf3QtH-216" value="" style="endArrow=none;html=1;rounded=0;entryX=0;entryY=0.5;entryDx=0;entryDy=0;" parent="1" target="tO4NBVC32cCDoz9cuNgk-25" edge="1">
          <mxGeometry width="50" height="50" relative="1" as="geometry">
            <mxPoint x="20" y="690" as="sourcePoint" />
            <mxPoint x="180" y="650" as="targetPoint" />
          </mxGeometry>
        </mxCell>
        <mxCell id="HX4FQDaYf_B5SBjf3QtH-217" value="" style="endArrow=none;html=1;rounded=0;entryX=0;entryY=0;entryDx=0;entryDy=0;exitX=1;exitY=0.5;exitDx=0;exitDy=0;" parent="1" source="HX4FQDaYf_B5SBjf3QtH-207" target="tO4NBVC32cCDoz9cuNgk-25" edge="1">
          <mxGeometry width="50" height="50" relative="1" as="geometry">
            <mxPoint x="110" y="670" as="sourcePoint" />
            <mxPoint x="130" y="600" as="targetPoint" />
          </mxGeometry>
        </mxCell>
        <mxCell id="HX4FQDaYf_B5SBjf3QtH-218" value="" style="endArrow=none;html=1;rounded=0;entryX=0;entryY=0.5;entryDx=0;entryDy=0;exitX=1;exitY=0.5;exitDx=0;exitDy=0;" parent="1" source="HX4FQDaYf_B5SBjf3QtH-208" edge="1">
          <mxGeometry width="50" height="50" relative="1" as="geometry">
            <mxPoint x="110" y="670" as="sourcePoint" />
            <mxPoint x="130" y="590" as="targetPoint" />
          </mxGeometry>
        </mxCell>
        <mxCell id="HX4FQDaYf_B5SBjf3QtH-219" value="" style="endArrow=none;html=1;rounded=0;entryX=0;entryY=0;entryDx=0;entryDy=0;exitX=1;exitY=0.5;exitDx=0;exitDy=0;" parent="1" source="HX4FQDaYf_B5SBjf3QtH-210" edge="1">
          <mxGeometry width="50" height="50" relative="1" as="geometry">
            <mxPoint x="110" y="670" as="sourcePoint" />
            <mxPoint x="130" y="580" as="targetPoint" />
          </mxGeometry>
        </mxCell>
        <mxCell id="HX4FQDaYf_B5SBjf3QtH-220" value="" style="endArrow=none;html=1;rounded=0;" parent="1" edge="1">
          <mxGeometry width="50" height="50" relative="1" as="geometry">
            <mxPoint x="190" y="490" as="sourcePoint" />
            <mxPoint x="200" y="490" as="targetPoint" />
          </mxGeometry>
        </mxCell>
        <mxCell id="HX4FQDaYf_B5SBjf3QtH-221" value="" style="endArrow=none;html=1;rounded=0;" parent="1" edge="1">
          <mxGeometry width="50" height="50" relative="1" as="geometry">
            <mxPoint x="170" y="560" as="sourcePoint" />
            <mxPoint x="180" y="560" as="targetPoint" />
          </mxGeometry>
        </mxCell>
        <mxCell id="HX4FQDaYf_B5SBjf3QtH-222" value="M" style="resizable=0;html=1;whiteSpace=wrap;align=right;verticalAlign=bottom;" parent="1" connectable="0" vertex="1">
          <mxGeometry x="249.99987761439917" y="470.0040520078388" as="geometry">
            <mxPoint x="-37" y="34" as="offset" />
          </mxGeometry>
        </mxCell>
        <mxCell id="HX4FQDaYf_B5SBjf3QtH-223" value="1" style="text;html=1;align=center;verticalAlign=middle;resizable=0;points=[];autosize=1;strokeColor=none;fillColor=none;" parent="1" vertex="1">
          <mxGeometry x="150" y="540" width="30" height="30" as="geometry" />
        </mxCell>
        <mxCell id="tO4NBVC32cCDoz9cuNgk-1" value="Сотрудник отдела" style="rounded=0;whiteSpace=wrap;html=1;" parent="1" vertex="1">
          <mxGeometry x="330" y="280" width="130" height="60" as="geometry" />
        </mxCell>
        <mxCell id="tO4NBVC32cCDoz9cuNgk-2" value="Отдел" style="rounded=0;whiteSpace=wrap;html=1;" parent="1" vertex="1">
          <mxGeometry x="335" y="180" width="120" height="50" as="geometry" />
        </mxCell>
        <mxCell id="tO4NBVC32cCDoz9cuNgk-4" value="Должность" style="rounded=0;whiteSpace=wrap;html=1;" parent="1" vertex="1">
          <mxGeometry x="490" y="185" width="100" height="35" as="geometry" />
        </mxCell>
        <mxCell id="tO4NBVC32cCDoz9cuNgk-5" value="Сотрудник" style="rounded=0;whiteSpace=wrap;html=1;" parent="1" vertex="1">
          <mxGeometry x="167.5" y="200" width="82.5" height="40" as="geometry" />
        </mxCell>
        <mxCell id="tO4NBVC32cCDoz9cuNgk-6" value="Этап выполнения" style="rounded=0;whiteSpace=wrap;html=1;" parent="1" vertex="1">
          <mxGeometry x="120" y="450" width="100" height="30" as="geometry" />
        </mxCell>
        <mxCell id="tO4NBVC32cCDoz9cuNgk-7" value="Задания" style="rounded=0;whiteSpace=wrap;html=1;" parent="1" vertex="1">
          <mxGeometry x="130" y="570" width="80" height="30" as="geometry" />
        </mxCell>
        <mxCell id="tO4NBVC32cCDoz9cuNgk-8" value="Проект" style="rounded=0;whiteSpace=wrap;html=1;" parent="1" vertex="1">
          <mxGeometry x="330" y="570" width="120" height="50" as="geometry" />
        </mxCell>
        <mxCell id="tO4NBVC32cCDoz9cuNgk-9" value="Заказчик" style="rounded=0;whiteSpace=wrap;html=1;" parent="1" vertex="1">
          <mxGeometry x="410" y="830" width="105" height="40" as="geometry" />
        </mxCell>
        <mxCell id="tO4NBVC32cCDoz9cuNgk-10" value="" style="endArrow=none;html=1;rounded=0;entryX=0.75;entryY=1;entryDx=0;entryDy=0;" parent="1" target="tO4NBVC32cCDoz9cuNgk-1" edge="1">
          <mxGeometry width="50" height="50" relative="1" as="geometry">
            <mxPoint x="440" y="390" as="sourcePoint" />
            <mxPoint x="270" y="480" as="targetPoint" />
          </mxGeometry>
        </mxCell>
        <mxCell id="tO4NBVC32cCDoz9cuNgk-11" value="Статус" style="ellipse;whiteSpace=wrap;html=1;" parent="1" vertex="1">
          <mxGeometry x="413" y="390" width="60" height="30" as="geometry" />
        </mxCell>
        <mxCell id="tO4NBVC32cCDoz9cuNgk-12" value="" style="endArrow=none;html=1;rounded=0;entryX=0;entryY=0;entryDx=0;entryDy=0;" parent="1" target="tO4NBVC32cCDoz9cuNgk-8" edge="1">
          <mxGeometry width="50" height="50" relative="1" as="geometry">
            <mxPoint x="310" y="560" as="sourcePoint" />
            <mxPoint x="330" y="550" as="targetPoint" />
          </mxGeometry>
        </mxCell>
        <mxCell id="tO4NBVC32cCDoz9cuNgk-13" value="Статус оплаты" style="ellipse;whiteSpace=wrap;html=1;" parent="1" vertex="1">
          <mxGeometry x="250" y="545" width="75" height="35" as="geometry" />
        </mxCell>
        <mxCell id="tO4NBVC32cCDoz9cuNgk-14" value="" style="endArrow=none;html=1;rounded=0;entryX=0;entryY=0.5;entryDx=0;entryDy=0;" parent="1" target="tO4NBVC32cCDoz9cuNgk-8" edge="1">
          <mxGeometry width="50" height="50" relative="1" as="geometry">
            <mxPoint x="310" y="600" as="sourcePoint" />
            <mxPoint x="320" y="590" as="targetPoint" />
          </mxGeometry>
        </mxCell>
        <mxCell id="tO4NBVC32cCDoz9cuNgk-15" value="&lt;font style=&quot;font-size: 7px;&quot;&gt;ФИО Контактного лица&lt;/font&gt;" style="ellipse;whiteSpace=wrap;html=1;" parent="1" vertex="1">
          <mxGeometry x="260" y="590" width="65" height="30" as="geometry" />
        </mxCell>
        <mxCell id="tO4NBVC32cCDoz9cuNgk-17" value="" style="endArrow=none;html=1;rounded=0;entryX=0.25;entryY=1;entryDx=0;entryDy=0;" parent="1" target="tO4NBVC32cCDoz9cuNgk-8" edge="1">
          <mxGeometry width="50" height="50" relative="1" as="geometry">
            <mxPoint x="330" y="640" as="sourcePoint" />
            <mxPoint x="350" y="600" as="targetPoint" />
          </mxGeometry>
        </mxCell>
        <mxCell id="tO4NBVC32cCDoz9cuNgk-18" value="&lt;font style=&quot;font-size: 7px;&quot;&gt;Номер телефона контактного лица&lt;/font&gt;" style="ellipse;whiteSpace=wrap;html=1;" parent="1" vertex="1">
          <mxGeometry x="260" y="630" width="80" height="40" as="geometry" />
        </mxCell>
        <mxCell id="tO4NBVC32cCDoz9cuNgk-19" value="" style="endArrow=none;html=1;rounded=0;entryX=0.75;entryY=1;entryDx=0;entryDy=0;" parent="1" target="HX4FQDaYf_B5SBjf3QtH-143" edge="1">
          <mxGeometry width="50" height="50" relative="1" as="geometry">
            <mxPoint x="260" y="860" as="sourcePoint" />
            <mxPoint x="280" y="810" as="targetPoint" />
          </mxGeometry>
        </mxCell>
        <mxCell id="tO4NBVC32cCDoz9cuNgk-20" value="Номер договора" style="ellipse;whiteSpace=wrap;html=1;" parent="1" vertex="1">
          <mxGeometry x="220" y="855" width="110" height="35" as="geometry" />
        </mxCell>
        <mxCell id="tO4NBVC32cCDoz9cuNgk-21" value="" style="endArrow=none;html=1;rounded=0;entryX=0.324;entryY=0.985;entryDx=0;entryDy=0;entryPerimeter=0;" parent="1" target="HX4FQDaYf_B5SBjf3QtH-143" edge="1">
          <mxGeometry width="50" height="50" relative="1" as="geometry">
            <mxPoint x="150" y="870" as="sourcePoint" />
            <mxPoint x="260" y="800" as="targetPoint" />
          </mxGeometry>
        </mxCell>
        <mxCell id="tO4NBVC32cCDoz9cuNgk-22" value="Дата создания договора" style="ellipse;whiteSpace=wrap;html=1;" parent="1" vertex="1">
          <mxGeometry x="110" y="865" width="100" height="35" as="geometry" />
        </mxCell>
        <mxCell id="tO4NBVC32cCDoz9cuNgk-23" value="" style="endArrow=none;html=1;rounded=0;entryX=0;entryY=0;entryDx=0;entryDy=0;" parent="1" target="tO4NBVC32cCDoz9cuNgk-6" edge="1">
          <mxGeometry width="50" height="50" relative="1" as="geometry">
            <mxPoint x="-10" y="410" as="sourcePoint" />
            <mxPoint x="190" y="420" as="targetPoint" />
          </mxGeometry>
        </mxCell>
        <mxCell id="tO4NBVC32cCDoz9cuNgk-24" value="Фактическая дата выполнения" style="ellipse;whiteSpace=wrap;html=1;" parent="1" vertex="1">
          <mxGeometry x="-128" y="375" width="130.5" height="50" as="geometry" />
        </mxCell>
        <mxCell id="tO4NBVC32cCDoz9cuNgk-25" value="Контроль" style="shape=trapezoid;perimeter=trapezoidPerimeter;whiteSpace=wrap;html=1;fixedSize=1;" parent="1" vertex="1">
          <mxGeometry x="60" y="670" width="80" height="40" as="geometry" />
        </mxCell>
        <mxCell id="tO4NBVC32cCDoz9cuNgk-26" value="" style="endArrow=none;html=1;rounded=0;entryX=0.5;entryY=1;entryDx=0;entryDy=0;exitX=0.5;exitY=0;exitDx=0;exitDy=0;" parent="1" source="tO4NBVC32cCDoz9cuNgk-25" target="tO4NBVC32cCDoz9cuNgk-7" edge="1">
          <mxGeometry width="50" height="50" relative="1" as="geometry">
            <mxPoint x="40" y="720" as="sourcePoint" />
            <mxPoint x="220" y="630" as="targetPoint" />
          </mxGeometry>
        </mxCell>
        <mxCell id="tO4NBVC32cCDoz9cuNgk-31" value="" style="endArrow=none;html=1;rounded=0;entryX=0.958;entryY=0.98;entryDx=0;entryDy=0;entryPerimeter=0;" parent="1" target="tO4NBVC32cCDoz9cuNgk-8" edge="1">
          <mxGeometry width="50" height="50" relative="1" as="geometry">
            <mxPoint x="650" y="770" as="sourcePoint" />
            <mxPoint x="480" y="690" as="targetPoint" />
          </mxGeometry>
        </mxCell>
        <mxCell id="tO4NBVC32cCDoz9cuNgk-32" value="Договор с сотрудником" style="rounded=0;whiteSpace=wrap;html=1;" parent="1" vertex="1">
          <mxGeometry x="640" y="747.5" width="120" height="45" as="geometry" />
        </mxCell>
        <mxCell id="tO4NBVC32cCDoz9cuNgk-33" value="" style="endArrow=none;html=1;rounded=0;entryX=0.5;entryY=1;entryDx=0;entryDy=0;exitX=0.388;exitY=-0.025;exitDx=0;exitDy=0;exitPerimeter=0;" parent="1" source="tO4NBVC32cCDoz9cuNgk-36" target="tO4NBVC32cCDoz9cuNgk-32" edge="1">
          <mxGeometry width="50" height="50" relative="1" as="geometry">
            <mxPoint x="700" y="830" as="sourcePoint" />
            <mxPoint x="700" y="800" as="targetPoint" />
          </mxGeometry>
        </mxCell>
        <mxCell id="tO4NBVC32cCDoz9cuNgk-36" value="Номер договора&amp;nbsp;" style="ellipse;whiteSpace=wrap;html=1;" parent="1" vertex="1">
          <mxGeometry x="710" y="890" width="80" height="40" as="geometry" />
        </mxCell>
        <mxCell id="tO4NBVC32cCDoz9cuNgk-37" value="" style="endArrow=none;html=1;rounded=0;entryX=0.75;entryY=1;entryDx=0;entryDy=0;" parent="1" target="tO4NBVC32cCDoz9cuNgk-32" edge="1">
          <mxGeometry width="50" height="50" relative="1" as="geometry">
            <mxPoint x="770" y="840" as="sourcePoint" />
            <mxPoint x="720" y="840" as="targetPoint" />
          </mxGeometry>
        </mxCell>
        <mxCell id="tO4NBVC32cCDoz9cuNgk-38" value="Дата заключения" style="ellipse;whiteSpace=wrap;html=1;" parent="1" vertex="1">
          <mxGeometry x="750" y="835" width="80" height="40" as="geometry" />
        </mxCell>
        <mxCell id="tO4NBVC32cCDoz9cuNgk-39" value="" style="endArrow=none;html=1;rounded=0;entryX=1;entryY=0.75;entryDx=0;entryDy=0;" parent="1" target="tO4NBVC32cCDoz9cuNgk-32" edge="1">
          <mxGeometry width="50" height="50" relative="1" as="geometry">
            <mxPoint x="810" y="800" as="sourcePoint" />
            <mxPoint x="720" y="830" as="targetPoint" />
          </mxGeometry>
        </mxCell>
        <mxCell id="tO4NBVC32cCDoz9cuNgk-40" value="Дата окончания договора" style="ellipse;whiteSpace=wrap;html=1;" parent="1" vertex="1">
          <mxGeometry x="780" y="780" width="90" height="50" as="geometry" />
        </mxCell>
        <mxCell id="tO4NBVC32cCDoz9cuNgk-41" value="" style="endArrow=none;html=1;rounded=0;entryX=1;entryY=0.25;entryDx=0;entryDy=0;" parent="1" target="tO4NBVC32cCDoz9cuNgk-32" edge="1">
          <mxGeometry width="50" height="50" relative="1" as="geometry">
            <mxPoint x="800" y="750" as="sourcePoint" />
            <mxPoint x="720" y="820" as="targetPoint" />
          </mxGeometry>
        </mxCell>
        <mxCell id="tO4NBVC32cCDoz9cuNgk-42" value="Дата выплаты" style="ellipse;whiteSpace=wrap;html=1;" parent="1" vertex="1">
          <mxGeometry x="785" y="732.5" width="80" height="32.5" as="geometry" />
        </mxCell>
        <mxCell id="tO4NBVC32cCDoz9cuNgk-43" value="" style="endArrow=none;html=1;rounded=0;entryX=0.75;entryY=0;entryDx=0;entryDy=0;" parent="1" target="tO4NBVC32cCDoz9cuNgk-32" edge="1">
          <mxGeometry width="50" height="50" relative="1" as="geometry">
            <mxPoint x="740" y="720" as="sourcePoint" />
            <mxPoint x="810" y="780" as="targetPoint" />
          </mxGeometry>
        </mxCell>
        <mxCell id="tO4NBVC32cCDoz9cuNgk-44" value="Размер выплаты" style="ellipse;whiteSpace=wrap;html=1;" parent="1" vertex="1">
          <mxGeometry x="710" y="690" width="75" height="40" as="geometry" />
        </mxCell>
        <mxCell id="tO4NBVC32cCDoz9cuNgk-45" value="" style="endArrow=none;html=1;rounded=0;" parent="1" edge="1">
          <mxGeometry width="50" height="50" relative="1" as="geometry">
            <mxPoint x="480" y="650" as="sourcePoint" />
            <mxPoint x="490" y="640" as="targetPoint" />
          </mxGeometry>
        </mxCell>
        <mxCell id="tO4NBVC32cCDoz9cuNgk-46" value="" style="endArrow=none;html=1;rounded=0;" parent="1" edge="1">
          <mxGeometry width="50" height="50" relative="1" as="geometry">
            <mxPoint x="610" y="750" as="sourcePoint" />
            <mxPoint x="620" y="740" as="targetPoint" />
          </mxGeometry>
        </mxCell>
        <mxCell id="tO4NBVC32cCDoz9cuNgk-47" value="М" style="text;html=1;align=center;verticalAlign=middle;resizable=0;points=[];autosize=1;strokeColor=none;fillColor=none;rotation=-45;" parent="1" vertex="1">
          <mxGeometry x="455" y="638" width="30" height="30" as="geometry" />
        </mxCell>
        <mxCell id="tO4NBVC32cCDoz9cuNgk-48" value="1" style="text;html=1;align=center;verticalAlign=middle;resizable=0;points=[];autosize=1;strokeColor=none;fillColor=none;rotation=-60;" parent="1" vertex="1">
          <mxGeometry x="590" y="740" width="30" height="30" as="geometry" />
        </mxCell>
        <mxCell id="9UPjmSMjqNXa9EHcIK3J-1" value="&lt;u&gt;&amp;nbsp;ID Договора&lt;/u&gt;" style="ellipse;whiteSpace=wrap;html=1;" parent="1" vertex="1">
          <mxGeometry x="630" y="630" width="100" height="50" as="geometry" />
        </mxCell>
        <mxCell id="9UPjmSMjqNXa9EHcIK3J-2" value="" style="endArrow=none;html=1;rounded=0;entryX=0.5;entryY=1;entryDx=0;entryDy=0;exitX=0.25;exitY=0;exitDx=0;exitDy=0;" parent="1" source="tO4NBVC32cCDoz9cuNgk-32" target="9UPjmSMjqNXa9EHcIK3J-1" edge="1">
          <mxGeometry width="50" height="50" relative="1" as="geometry">
            <mxPoint x="450" y="620" as="sourcePoint" />
            <mxPoint x="500" y="570" as="targetPoint" />
          </mxGeometry>
        </mxCell>
        <mxCell id="9UPjmSMjqNXa9EHcIK3J-3" value="" style="endArrow=none;html=1;rounded=0;entryX=0;entryY=0.75;entryDx=0;entryDy=0;" parent="1" target="tO4NBVC32cCDoz9cuNgk-32" edge="1">
          <mxGeometry width="50" height="50" relative="1" as="geometry">
            <mxPoint x="600" y="790" as="sourcePoint" />
            <mxPoint x="610" y="750" as="targetPoint" />
          </mxGeometry>
        </mxCell>
        <mxCell id="9UPjmSMjqNXa9EHcIK3J-4" value="&lt;u&gt;ID Сотрудника&lt;/u&gt;" style="ellipse;whiteSpace=wrap;html=1;" parent="1" vertex="1">
          <mxGeometry x="530" y="760" width="70" height="60" as="geometry" />
        </mxCell>
        <mxCell id="9UPjmSMjqNXa9EHcIK3J-5" value="" style="endArrow=none;html=1;rounded=0;entryX=0.215;entryY=1.001;entryDx=0;entryDy=0;entryPerimeter=0;exitX=0.444;exitY=0.167;exitDx=0;exitDy=0;exitPerimeter=0;" parent="1" source="9UPjmSMjqNXa9EHcIK3J-6" target="tO4NBVC32cCDoz9cuNgk-32" edge="1">
          <mxGeometry width="50" height="50" relative="1" as="geometry">
            <mxPoint x="630" y="880" as="sourcePoint" />
            <mxPoint x="680" y="760" as="targetPoint" />
          </mxGeometry>
        </mxCell>
        <mxCell id="9UPjmSMjqNXa9EHcIK3J-6" value="ФИО Сотрудника" style="ellipse;whiteSpace=wrap;html=1;" parent="1" vertex="1">
          <mxGeometry x="560" y="900" width="90" height="60" as="geometry" />
        </mxCell>
        <mxCell id="9UPjmSMjqNXa9EHcIK3J-7" value="" style="endArrow=none;html=1;rounded=0;exitX=0;exitY=0;exitDx=0;exitDy=0;" parent="1" source="tO4NBVC32cCDoz9cuNgk-32" edge="1">
          <mxGeometry width="50" height="50" relative="1" as="geometry">
            <mxPoint x="460" y="630" as="sourcePoint" />
            <mxPoint x="440" y="340" as="targetPoint" />
          </mxGeometry>
        </mxCell>
        <mxCell id="_Dv03ANsa76mX_OwBXtq-1" value="" style="endArrow=none;html=1;rounded=0;" parent="1" edge="1">
          <mxGeometry width="50" height="50" relative="1" as="geometry">
            <mxPoint x="220" y="595" as="sourcePoint" />
            <mxPoint x="220" y="585" as="targetPoint" />
          </mxGeometry>
        </mxCell>
        <mxCell id="_Dv03ANsa76mX_OwBXtq-2" value="&amp;nbsp;M" style="text;html=1;align=center;verticalAlign=middle;resizable=0;points=[];autosize=1;strokeColor=none;fillColor=none;rotation=-90;" parent="1" vertex="1">
          <mxGeometry x="200" y="565" width="40" height="30" as="geometry" />
        </mxCell>
        <mxCell id="_Dv03ANsa76mX_OwBXtq-3" value="" style="endArrow=none;html=1;rounded=0;" parent="1" edge="1">
          <mxGeometry width="50" height="50" relative="1" as="geometry">
            <mxPoint x="320" y="580" as="sourcePoint" />
            <mxPoint x="320" y="580" as="targetPoint" />
            <Array as="points">
              <mxPoint x="320" y="590" />
            </Array>
          </mxGeometry>
        </mxCell>
        <mxCell id="_Dv03ANsa76mX_OwBXtq-4" value="1&lt;br&gt;" style="text;html=1;strokeColor=none;fillColor=none;align=center;verticalAlign=middle;whiteSpace=wrap;rounded=0;rotation=90;" parent="1" vertex="1">
          <mxGeometry x="290" y="560" width="60" height="30" as="geometry" />
        </mxCell>
        <mxCell id="_Dv03ANsa76mX_OwBXtq-5" value="" style="endArrow=none;html=1;rounded=0;entryX=0.25;entryY=1;entryDx=0;entryDy=0;" parent="1" source="_Dv03ANsa76mX_OwBXtq-6" target="tO4NBVC32cCDoz9cuNgk-32" edge="1">
          <mxGeometry width="50" height="50" relative="1" as="geometry">
            <mxPoint x="680" y="840" as="sourcePoint" />
            <mxPoint x="630" y="670" as="targetPoint" />
            <Array as="points" />
          </mxGeometry>
        </mxCell>
        <mxCell id="_Dv03ANsa76mX_OwBXtq-7" value="" style="endArrow=none;html=1;rounded=0;entryX=0.25;entryY=1;entryDx=0;entryDy=0;" parent="1" target="_Dv03ANsa76mX_OwBXtq-6" edge="1">
          <mxGeometry width="50" height="50" relative="1" as="geometry">
            <mxPoint x="680" y="840" as="sourcePoint" />
            <mxPoint x="670" y="792" as="targetPoint" />
            <Array as="points">
              <mxPoint x="680" y="840" />
            </Array>
          </mxGeometry>
        </mxCell>
        <mxCell id="_Dv03ANsa76mX_OwBXtq-6" value="Оплата" style="ellipse;whiteSpace=wrap;html=1;" parent="1" vertex="1">
          <mxGeometry x="640" y="830" width="80" height="50" as="geometry" />
        </mxCell>
        <mxCell id="_Dv03ANsa76mX_OwBXtq-9" value="&lt;font style=&quot;font-size: 6px;&quot;&gt;Причина проверки&lt;/font&gt;" style="ellipse;whiteSpace=wrap;html=1;" parent="1" vertex="1">
          <mxGeometry x="145" y="650" width="65" height="25" as="geometry" />
        </mxCell>
        <mxCell id="_Dv03ANsa76mX_OwBXtq-14" value="" style="endArrow=none;html=1;rounded=0;" parent="1" edge="1">
          <mxGeometry width="50" height="50" relative="1" as="geometry">
            <mxPoint x="110" y="650" as="sourcePoint" />
            <mxPoint x="120" y="660" as="targetPoint" />
          </mxGeometry>
        </mxCell>
        <mxCell id="_Dv03ANsa76mX_OwBXtq-15" value="" style="endArrow=none;html=1;rounded=0;" parent="1" edge="1">
          <mxGeometry width="50" height="50" relative="1" as="geometry">
            <mxPoint x="160" y="620" as="sourcePoint" />
            <mxPoint x="150" y="610" as="targetPoint" />
          </mxGeometry>
        </mxCell>
        <mxCell id="_Dv03ANsa76mX_OwBXtq-16" value="1" style="text;html=1;align=center;verticalAlign=middle;resizable=0;points=[];autosize=1;strokeColor=none;fillColor=none;rotation=45;" parent="1" vertex="1">
          <mxGeometry x="150" y="608" width="30" height="30" as="geometry" />
        </mxCell>
        <mxCell id="_Dv03ANsa76mX_OwBXtq-17" value="М" style="text;html=1;align=center;verticalAlign=middle;resizable=0;points=[];autosize=1;strokeColor=none;fillColor=none;rotation=45;" parent="1" vertex="1">
          <mxGeometry x="115" y="647.5" width="30" height="30" as="geometry" />
        </mxCell>
        <mxCell id="_Dv03ANsa76mX_OwBXtq-18" value="" style="endArrow=none;html=1;rounded=0;exitX=1;exitY=0.5;exitDx=0;exitDy=0;entryX=0;entryY=1;entryDx=0;entryDy=0;" parent="1" source="tO4NBVC32cCDoz9cuNgk-25" target="_Dv03ANsa76mX_OwBXtq-9" edge="1">
          <mxGeometry width="50" height="50" relative="1" as="geometry">
            <mxPoint x="90" y="670" as="sourcePoint" />
            <mxPoint x="140" y="620" as="targetPoint" />
          </mxGeometry>
        </mxCell>
        <mxCell id="_Dv03ANsa76mX_OwBXtq-19" value="&lt;font style=&quot;font-size: 6px;&quot;&gt;Статус задания&lt;/font&gt;" style="ellipse;whiteSpace=wrap;html=1;" parent="1" vertex="1">
          <mxGeometry x="190" y="625" width="60" height="15" as="geometry" />
        </mxCell>
        <mxCell id="_Dv03ANsa76mX_OwBXtq-20" value="" style="endArrow=none;html=1;rounded=0;entryX=0.75;entryY=1;entryDx=0;entryDy=0;exitX=0.409;exitY=-0.015;exitDx=0;exitDy=0;exitPerimeter=0;" parent="1" source="_Dv03ANsa76mX_OwBXtq-19" target="tO4NBVC32cCDoz9cuNgk-7" edge="1">
          <mxGeometry width="50" height="50" relative="1" as="geometry">
            <mxPoint x="190" y="670" as="sourcePoint" />
            <mxPoint x="240" y="620" as="targetPoint" />
          </mxGeometry>
        </mxCell>
        <mxCell id="_Dv03ANsa76mX_OwBXtq-21" value="" style="endArrow=none;html=1;rounded=0;entryX=1;entryY=1;entryDx=0;entryDy=0;exitX=0.5;exitY=0;exitDx=0;exitDy=0;" parent="1" source="HX4FQDaYf_B5SBjf3QtH-17" target="tO4NBVC32cCDoz9cuNgk-1" edge="1">
          <mxGeometry width="50" height="50" relative="1" as="geometry">
            <mxPoint x="420" y="270" as="sourcePoint" />
            <mxPoint x="470" y="220" as="targetPoint" />
          </mxGeometry>
        </mxCell>
        <mxCell id="_Dv03ANsa76mX_OwBXtq-22" value="" style="endArrow=none;html=1;rounded=0;" parent="1" target="_Dv03ANsa76mX_OwBXtq-23" edge="1">
          <mxGeometry width="50" height="50" relative="1" as="geometry">
            <mxPoint x="190" y="450" as="sourcePoint" />
            <mxPoint x="250" y="400" as="targetPoint" />
          </mxGeometry>
        </mxCell>
        <mxCell id="_Dv03ANsa76mX_OwBXtq-23" value="Пояснения" style="ellipse;whiteSpace=wrap;html=1;" parent="1" vertex="1">
          <mxGeometry x="220" y="375" width="70" height="27.5" as="geometry" />
        </mxCell>
        <mxCell id="_Dv03ANsa76mX_OwBXtq-26" value="1" style="text;html=1;align=center;verticalAlign=middle;resizable=0;points=[];autosize=1;strokeColor=none;fillColor=none;rotation=-30;" parent="1" vertex="1">
          <mxGeometry x="620" y="690" width="30" height="30" as="geometry" />
        </mxCell>
        <mxCell id="yicPHKBUREc3-VT1q4Fw-2" value="M" style="text;html=1;align=center;verticalAlign=middle;resizable=0;points=[];autosize=1;strokeColor=none;fillColor=none;" vertex="1" parent="1">
          <mxGeometry x="495" y="418" width="30" height="30" as="geometry" />
        </mxCell>
      </root>
    </mxGraphModel>
  </diagram>
</mxfile>
